<svg xmlns="http://www.w3.org/2000/svg" width="494" height="336" viewBox="0 0 494 336"><defs><clipPath id="clip-path"><path d="M368.22 151.61c39.59-59.11 58.6-53.05 62.95-47.61 10.86 13.57-5.9 25.26-11.33 70.39-1.47 12.21 0 38.78-28.09 49.71-26.08 10.15-33.46-14.13-34.58-19.59-3.58-17.37 5.9-42.65 11.05-52.9z" class="cls-1"/></clipPath><clipPath id="clip-path-2"><path d="M102.33 129.26h77.86v150.27h-77.86z" class="cls-2"/></clipPath><clipPath id="clip-path-3"><path d="M189.1 32.31h91.07c4.92 0 7.21 1.58 7.21 6.25v234.65c0 4.66-2.29 3.44-7.21 3.44H189.1c-4.92 0-8.91 1.23-8.91-3.44V40.76a8.69 8.69 0 018.91-8.45z" class="cls-2"/></clipPath><clipPath id="clip-path-4"><path d="M269 32.31h81c3.79 0 6.86 3.78 6.86 8.45v232.45c0 4.67-3.07 8.45-6.86 8.45h-81c-3.79 0-6.86-3.78-6.86-8.45V40.76c-.02-4.67 3.05-8.45 6.86-8.45z" class="cls-2"/></clipPath><clipPath id="clip-path-5"><path d="M269 30.68h81c3.79 0 6.86 3.8 6.86 8.5v234c0 4.7-3.07 8.5-6.86 8.5h-81c-3.79 0-6.86-3.8-6.86-8.5v-234c-.02-4.7 3.05-8.5 6.86-8.5z" class="cls-2"/></clipPath><style>.cls-1{fill:#83d4b9}.cls-13,.cls-14,.cls-15,.cls-2,.cls-24,.cls-26{fill:none}.cls-3{fill:#fff}.cls-7{fill:#b2edd5}.cls-9{fill:#a1b7ef}.cls-13{stroke:#f66318}.cls-13,.cls-15,.cls-24,.cls-26{stroke-linecap:round}.cls-13,.cls-14,.cls-15,.cls-24,.cls-26{stroke-miterlimit:10}.cls-14{stroke:#7091e7}.cls-15,.cls-24{stroke:#44bee0}.cls-16{opacity:.5}.cls-22{fill:#2f4e9c}.cls-24,.cls-26{stroke-width:2px}.cls-26{stroke:#daeb81}</style></defs><g id="Layer_2"><g id="PRODUCT"><path d="M0 0h494v336H0z" class="cls-3"/><path d="M368.22 151.61c39.59-59.11 58.6-53.05 62.95-47.61 10.86 13.57-5.9 25.26-11.33 70.39-1.47 12.21 0 38.78-28.09 49.71-26.08 10.15-33.46-14.13-34.58-19.59-3.58-17.37 5.9-42.65 11.05-52.9z" class="cls-1"/><g clip-path="url(#clip-path)"><path fill="#007477" d="M384.16 155.72c9.73-7.85 10.59 6.89 15.63-2.34C410 134.6 425.12 102 436.5 107.25a4.42 4.42 0 002.69-3.45c-.09-.14 1.07-3 1-3.09-3.81-5.84-21-2.9-66.14 52.07-6.12 9.71-18 33.94-16.15 51.58a48.71 48.71 0 001.2 7.35c1.17-20.66 8.78-42.87 25.06-55.99z" opacity=".25"/></g><path fill="#007477" d="M355.41 283.73a199.53 199.53 0 013.15-42.3 210.84 210.84 0 014.64-20.76q2.81-10.28 6.47-20.28t8.48-19.53c1.65-3.15 3.18-6.35 5-9.42.88-1.54 1.71-3.11 2.63-4.63l2.81-4.52c.92-1.52 1.95-3 2.93-4.44s2-3 3-4.38c2.11-2.85 4.15-5.75 6.43-8.47a186.36 186.36 0 0114.24-15.74c-4.64 5.33-9.3 10.65-13.41 16.38-2.17 2.78-4.13 5.71-6.14 8.6-1 1.44-1.92 3-2.88 4.44s-1.92 2.95-2.78 4.48q-5.43 9.06-10.06 18.56t-8.24 19.42a254.8 254.8 0 00-11.5 40.59q-2.09 10.36-3.27 20.89a198.56 198.56 0 00-1.5 21.11z"/><path d="M378.59 153.54c8.92-8.75 11.21 5.83 15.33-3.85 8.37-19.69 23.28-47.91 37.54-45.31l-.29-.38c-4.35-5.44-23.36-11.5-62.95 47.61-5.15 10.25-14.63 35.53-11.05 52.9a47.84 47.84 0 001.91 7.2c-.83-20.71 4.59-43.52 19.51-58.17z" class="cls-7"/><path fill="#e8e8e8" d="M62.2 278c-89 12.6 156.89 6.53 118 17-50.64 13.64 235 10.11 144.11 4.89-26.18-1.5 81.28-23.05 110.46-24.69 10.68-2.33 1.58-7-73.66-2.2-82.44-1.25-262.26-.25-298.91 5z"/><path d="M105.16 280.16a6 6 0 01-6-6v-142a6 6 0 016-6h85.64v154z" class="cls-9"/><path fill="#3c64c7" d="M189.3 127.64v151h-84.14a4.49 4.49 0 01-4.5-4.5v-142a4.5 4.5 0 014.5-4.5h84.14m3-3h-87.14a7.5 7.5 0 00-7.5 7.5v142a7.49 7.49 0 007.5 7.5h87.14v-157z"/><g clip-path="url(#clip-path-2)"><path fill="#d9e2f8" d="M111.15 238.55a4.74 4.74 0 00-4.74 4.69v25.48a4.75 4.75 0 004.74 4.75h17.34a2.28 2.28 0 001.61-.67l1.68-1.68a2.27 2.27 0 011.6-.66h22.28a2.27 2.27 0 011.6.66l1.68 1.68a2.29 2.29 0 001.62.67h18.74a3.34 3.34 0 003.33-3.34v-28.25a3.33 3.33 0 00-3.33-3.33zM111.15 199.71a4.75 4.75 0 00-4.74 4.7v23.48a4.74 4.74 0 004.74 4.75h17.34a2.28 2.28 0 001.61-.67l1.68-1.67a2.24 2.24 0 011.6-.67h22.28a2.24 2.24 0 011.6.67l1.68 1.67a2.29 2.29 0 001.62.67h18.74a3.33 3.33 0 003.33-3.33v-26.26a3.34 3.34 0 00-3.33-3.34zM111.15 166.27a4.74 4.74 0 00-4.74 4.69v17.71a4.75 4.75 0 004.74 4.75h17.34a2.28 2.28 0 001.61-.67l1.68-1.68a2.27 2.27 0 011.6-.66h22.28a2.27 2.27 0 011.6.66l1.68 1.68a2.29 2.29 0 001.62.67h18.74a3.34 3.34 0 003.33-3.34V169.6a3.33 3.33 0 00-3.33-3.33zM111.15 133.66a4.74 4.74 0 00-4.74 4.69v18.78a4.74 4.74 0 004.74 4.75h17.34a2.28 2.28 0 001.61-.67l1.68-1.67a2.24 2.24 0 011.6-.67h22.28a2.24 2.24 0 011.6.67l1.68 1.67a2.29 2.29 0 001.62.67h18.74a3.33 3.33 0 003.33-3.33V137a3.33 3.33 0 00-3.33-3.33z" opacity=".73"/><circle cx="114.17" cy="143.6" r="1.16" class="cls-9"/><circle cx="114.17" cy="151.33" r="1.16" class="cls-9"/><circle cx="123.45" cy="143.6" r="1.16" class="cls-9"/><circle cx="123.45" cy="151.33" r="1.16" class="cls-9"/><circle cx="118.81" cy="147.47" r="1.16" class="cls-9"/><circle cx="132.73" cy="143.6" r="1.16" class="cls-9"/><circle cx="132.73" cy="151.33" r="1.16" class="cls-9"/><circle cx="128.09" cy="147.47" r="1.16" class="cls-9"/><circle cx="173.33" cy="143.21" r="2.71" class="cls-13"/><circle cx="173.33" cy="152.49" r="1.93" class="cls-9"/><circle cx="114.17" cy="248.64" r="1.16" class="cls-9"/><circle cx="114.17" cy="256.38" r="1.16" class="cls-9"/><circle cx="123.45" cy="248.64" r="1.16" class="cls-9"/><circle cx="123.45" cy="256.38" r="1.16" class="cls-9"/><circle cx="118.81" cy="252.51" r="1.16" class="cls-9"/><circle cx="132.73" cy="248.64" r="1.16" class="cls-9"/><circle cx="132.73" cy="256.38" r="1.16" class="cls-9"/><circle cx="128.09" cy="252.51" r="1.16" class="cls-9"/><circle cx="141.96" cy="248.64" r="1.16" class="cls-9"/><circle cx="141.96" cy="256.38" r="1.16" class="cls-9"/><circle cx="137.32" cy="252.51" r="1.16" class="cls-9"/><circle cx="151.24" cy="248.64" r="1.16" class="cls-9"/><circle cx="151.24" cy="256.38" r="1.16" class="cls-9"/><circle cx="146.6" cy="252.51" r="1.16" class="cls-9"/><circle cx="160.37" cy="248.64" r="1.16" class="cls-9"/><circle cx="160.37" cy="256.38" r="1.16" class="cls-9"/><circle cx="155.73" cy="252.51" r="1.16" class="cls-9"/><circle cx="169.65" cy="248.64" r="1.16" class="cls-9"/><circle cx="169.65" cy="256.38" r="1.16" class="cls-9"/><circle cx="165.01" cy="252.51" r="1.16" class="cls-9"/><circle cx="173.49" cy="175.81" r="2.54" class="cls-9"/><circle cx="173.49" cy="184.52" r="1.81" class="cls-14"/><rect width="30.6" height="1.45" x="113.01" y="173.4" class="cls-9" rx=".44"/><rect width="30.6" height="1.45" x="113.01" y="179.08" class="cls-9" rx=".44"/><rect width="23.48" height="1.45" x="113.01" y="184.89" class="cls-9" rx=".44"/><circle cx="114.26" cy="212.13" r="1.25" class="cls-9"/><circle cx="114.26" cy="220.45" r="1.25" class="cls-9"/><circle cx="124.24" cy="212.13" r="1.25" class="cls-9"/><circle cx="124.24" cy="220.45" r="1.25" class="cls-9"/><circle cx="119.25" cy="216.29" r="1.25" class="cls-9"/><circle cx="134.22" cy="212.13" r="1.25" class="cls-9"/><circle cx="134.22" cy="220.45" r="1.25" class="cls-9"/><circle cx="129.23" cy="216.29" r="1.25" class="cls-9"/><circle cx="153.5" cy="212.36" r="2.43" class="cls-13"/><circle cx="153.5" cy="220.69" r="1.74" class="cls-15"/><g class="cls-16"><rect width="15.61" height="14.35" x="160.43" y="209.05" class="cls-9" rx="2.09"/></g><path d="M175.15 222H164.8a3.26 3.26 0 01-3.26-3.26v-7.83c0-.68 1.08-1.68 1.83-1.84a3.25 3.25 0 00-2.94 3.23v7.83a3.26 3.26 0 003.26 3.26h9.08a3.29 3.29 0 002.7-1.42c-.11.03-.21.03-.32.03z" class="cls-9"/></g><path fill="#3d64c9" d="M269 32.31h81c3.79 0 6.86 3.78 6.86 8.45v232.45c0 4.67-3.07 8.45-6.86 8.45h-81c-3.79 0-6.86-3.78-6.86-8.45V40.76c-.02-4.67 3.05-8.45 6.86-8.45z"/><path d="M188.05 280.16a7.19 7.19 0 01-7.41-7V40.76a7.2 7.2 0 017.41-6.95h95.31a7.21 7.21 0 017.42 6.95v232.45a7.2 7.2 0 01-7.42 7z" class="cls-3"/><path fill="#4470e0" d="M283.36 35.31a5.71 5.71 0 015.92 5.45v232.46a5.7 5.7 0 01-5.92 5.44h-95.31a5.7 5.7 0 01-5.91-5.44V40.76a5.7 5.7 0 015.91-5.45h95.31m0-3h-95.31a8.69 8.69 0 00-8.91 8.45v232.46a8.69 8.69 0 008.91 8.44h95.31a8.69 8.69 0 008.92-8.44V40.76a8.69 8.69 0 00-8.92-8.45z"/><g clip-path="url(#clip-path-3)"><path fill="#d9e2f8" d="M190.48 222.25a4.74 4.74 0 00-4.74 4.7v37.24a4.74 4.74 0 004.74 4.75h31.61a2.29 2.29 0 001.62-.67l1.67-1.67a2.28 2.28 0 011.61-.67h22.28a2.24 2.24 0 011.6.67l1.68 1.67a2.28 2.28 0 001.61.67h38.12a3.33 3.33 0 003.33-3.33v-40a3.33 3.33 0 00-3.33-3.33zM190.48 134a4.74 4.74 0 00-4.74 4.7v29.73a4.75 4.75 0 004.74 4.75h31.61a2.29 2.29 0 001.62-.67l1.67-1.68a2.31 2.31 0 011.61-.66h22.28a2.27 2.27 0 011.6.66l1.68 1.68a2.28 2.28 0 001.61.67h38.12a3.34 3.34 0 003.33-3.34v-32.5a3.34 3.34 0 00-3.33-3.34zM190.48 87.33a4.74 4.74 0 00-4.74 4.7v29.73a4.75 4.75 0 004.74 4.75h31.61a2.29 2.29 0 001.62-.67l1.67-1.67a2.28 2.28 0 011.61-.67h22.28a2.24 2.24 0 011.6.67l1.68 1.67a2.28 2.28 0 001.61.67h38.12a3.33 3.33 0 003.33-3.34v-32.5a3.34 3.34 0 00-3.33-3.34zM190.48 41.42a4.73 4.73 0 00-4.74 4.69v29.74a4.74 4.74 0 004.74 4.74h31.61a2.29 2.29 0 001.62-.67l1.67-1.67a2.27 2.27 0 011.61-.66h22.28a2.23 2.23 0 011.6.66l1.68 1.67a2.28 2.28 0 001.61.67h38.12a3.33 3.33 0 003.33-3.33V44.75a3.33 3.33 0 00-3.33-3.33zM190.48 179.11a4.73 4.73 0 00-4.74 4.69v25.48a4.75 4.75 0 004.74 4.75h31.61a2.29 2.29 0 001.62-.67l1.67-1.67A2.28 2.28 0 01227 211h22.28a2.24 2.24 0 011.6.67l1.68 1.67a2.28 2.28 0 001.61.67h38.12a3.33 3.33 0 003.33-3.34v-28.23a3.33 3.33 0 00-3.33-3.33z"/><circle cx="192.34" cy="145.67" r="1.8" class="cls-9"/><circle cx="192.34" cy="157.64" r="1.8" class="cls-9"/><circle cx="206.7" cy="145.67" r="1.8" class="cls-9"/><circle cx="206.7" cy="157.64" r="1.8" class="cls-9"/><circle cx="199.52" cy="151.66" r="1.8" class="cls-9"/><circle cx="221.07" cy="145.67" r="1.8" class="cls-9"/><circle cx="221.07" cy="157.64" r="1.8" class="cls-9"/><circle cx="213.89" cy="151.66" r="1.8" class="cls-9"/><circle cx="197.23" cy="99.82" r="1.5" class="cls-9"/><circle cx="197.23" cy="109.82" r="1.5" class="cls-9"/><circle cx="209.22" cy="99.82" r="1.5" class="cls-9"/><circle cx="209.22" cy="109.82" r="1.5" class="cls-9"/><circle cx="203.22" cy="104.82" r="1.5" class="cls-9"/><circle cx="221.21" cy="99.82" r="1.5" class="cls-9"/><circle cx="221.21" cy="109.82" r="1.5" class="cls-9"/><circle cx="215.21" cy="104.82" r="1.5" class="cls-9"/><circle cx="273.66" cy="99.32" r="3.5" class="cls-9"/><circle cx="273.66" cy="111.31" r="2.5" class="cls-13"/><circle cx="272.96" cy="146" r="3.5" class="cls-14"/><circle cx="272.96" cy="157.99" r="2.5" class="cls-15"/><circle cx="273.66" cy="203.06" r="2.5" class="cls-9"/><circle cx="197.23" cy="258.62" r="3.5" class="cls-14"/><circle cx="207.72" cy="258.62" r="2.5" class="cls-13"/><g class="cls-16"><rect width="22.59" height="20.77" x="258.68" y="49.02" class="cls-9" rx="2.84"/></g><path d="M280 67.77h-15a4.72 4.72 0 01-4.72-4.72V51.72c0-1 1.58-2.42 2.66-2.66a4.69 4.69 0 00-4.26 4.67v11.34a4.71 4.71 0 004.71 4.71h13.16a4.68 4.68 0 003.89-2.06 3.44 3.44 0 01-.44.05z" class="cls-9"/><rect width="42.13" height="1.99" x="190.38" y="49.02" class="cls-9" rx=".61"/><rect width="42.13" height="1.99" x="190.38" y="58.4" class="cls-9" rx=".61"/><rect width="32.32" height="1.99" x="190.38" y="67.79" class="cls-9" rx=".61"/><rect width="42.13" height="1.99" x="190.38" y="187.74" class="cls-9" rx=".61"/><rect width="42.13" height="1.99" x="190.38" y="195.57" class="cls-9" rx=".61"/><rect width="32.32" height="1.99" x="190.38" y="203.57" class="cls-9" rx=".61"/><rect width="92.18" height="2.15" x="190.38" y="229.8" class="cls-9" rx=".66"/><rect width="83.3" height="2.07" x="190.38" y="237.71" class="cls-9" rx=".63"/><rect width="32.32" height="1.99" x="190.38" y="245.78" class="cls-9" rx=".61"/><circle cx="273.66" cy="191.07" r="3.5" class="cls-13"/></g><g clip-path="url(#clip-path-4)"><path d="M333.4 282.46c-1-3.49-1.34-6-3.87-8.58-3.45-3.58 3-1.32 5.07-.18 1.69.94-.27-9 .18-13.42.26-2.57 4.61 6.07 6.87 7.2s.66-13.32 2.29-18.54c1.26-4.05 2.78 16.07 4.14 12.05s13.83-19.38 12.72-15.21c-1.73 6.45-1.46 13.87-2.18 18.4-.32 2 6.06-2.23 4.94-.42-3.4 5.53-5.81 10.42-6.61 16.8" class="cls-22"/></g><path fill="none" stroke="#2f4e9c" stroke-linecap="round" stroke-miterlimit="10" stroke-width="2" d="M324.3 82.52v157.26"/><path d="M333.7 113.81v9.5" class="cls-24"/><path fill="none" stroke="#44bee0" stroke-dasharray="16.14 16.14" stroke-linecap="round" stroke-miterlimit="10" stroke-width="2" d="M333.7 139.45v56.49"/><path d="M333.7 204.01v9.5" class="cls-24"/><path d="M314.89 98.33v6" class="cls-26"/><path fill="none" stroke="#daeb81" stroke-dasharray="13.01 13.01" stroke-linecap="round" stroke-miterlimit="10" stroke-width="2" d="M314.89 117.33v97.57"/><path d="M314.89 221.4v6" class="cls-26"/><g clip-path="url(#clip-path-5)"><path d="M333.4 282.47c-1-3.52-1.34-6-3.87-8.64-3.45-3.6 3-1.33 5.07-.18 1.69 1-.27-9.08.18-13.51.26-2.59 4.61 6.11 6.87 7.25s.66-13.41 2.29-18.66c1.26-4.08 2.78 16.17 4.14 12.12s13.83-19.51 12.72-15.31c-1.73 6.5-1.46 14-2.18 18.52-.32 2 6.06-2.24 4.94-.41-3.4 5.55-5.81 10.48-6.61 16.9" class="cls-22"/></g><path d="M363.39 280.64a1.31 1.31 0 001.17-1.11c.93-5.94 3.26-10.63 6.48-15.88 1.11-1.83-5.27 2.42-5 .41.73-4.55.46-12 2.18-18.52 1.11-4.2-11.33 11.16-12.72 15.31s-2.87-16.2-4.14-12.12c-1.63 5.25-.18 19.72-2.29 18.66s-6.6-9.84-6.86-7.25c-.45 4.43 1.5 14.46-.19 13.51-2-1.15-8.52-3.42-5.07.18 2.27 2.36 2.78 4.6 3.58 7.57a1.33 1.33 0 001.39 1z" class="cls-1"/><path d="M345.05 282.13c2.5-.28 5-.49 7.49-.73a.21.21 0 00.19-.27s-.11-.16-.19-.28l-.26-.35-1-1.4-1-1.4-.52-.7-.14-.21a.86.86 0 01-.09-.24.43.43 0 01.24-.43.42.42 0 01.22 0h.01a2.24 2.24 0 01.51.24c1 .62 1.94 1.29 2.92 1.89a9.82 9.82 0 001.44.79.9.9 0 00.26.07l-.15.08c-.15.08-.06.17-.07.14s0-.08 0-.16v-.23-.45a32.89 32.89 0 01.58-7c.11-.58.23-1.16.38-1.74a6.32 6.32 0 01.3-.9 1.11 1.11 0 01.15-.28.76.76 0 01.19-.21.7.7 0 01.23-.11.76.76 0 01.44.05.7.7 0 01.29.32l.07.18c0 .11 0 .18.07.28.17 1.18.29 2.31.44 3.46s.29 2.29.51 3.41c.05.27.11.55.18.81a3.07 3.07 0 00.11.36.44.44 0 00.06.12s.05 0-.16-.07-.35.17-.34.09a.81.81 0 00.05-.1c.05-.12.12-.3.18-.42q.19-.42.42-.81a13.51 13.51 0 012.04-2.93 1.87 1.87 0 01.51-.33.62.62 0 01.6.07.72.72 0 01.27.44 3.48 3.48 0 01-.05 1c-.09.59-.2 1.16-.32 1.73l-.74 3.4-.19.85-.05.2a.2.2 0 000 .07.16.16 0 00.1.1 1.51 1.51 0 00.33 0l.44-.05.86-.08a53.83 53.83 0 016.95-.25 63.59 63.59 0 00-6.89.72l-.86.13-.43.06a1.38 1.38 0 01-.53 0 .7.7 0 01-.55-.81v-.22l.16-.86.61-3.41c.09-.56.18-1.13.25-1.69a2.57 2.57 0 000-.72l.07.07a.3.3 0 00.2.05 1.62 1.62 0 00-.21.16 14.35 14.35 0 00-1.89 2.73c-.13.25-.26.5-.37.74a3.34 3.34 0 00-.15.38 2.37 2.37 0 01-.14.29.65.65 0 01-.68.31.8.8 0 01-.46-.36c-.06-.1-.09-.19-.13-.27s-.11-.31-.15-.46c-.08-.3-.15-.59-.21-.88-.24-1.16-.4-2.31-.56-3.46s-.3-2.31-.48-3.42v-.14a.38.38 0 00.16.15.44.44 0 00.33 0 .35.35 0 00.14-.06l.05-.05-.05.1a4.71 4.71 0 00-.25.75c-.15.53-.27 1.09-.38 1.65a31.79 31.79 0 00-.65 6.78v.6a2.6 2.6 0 010 .28.69.69 0 01-.19.54.71.71 0 01-.54.2 1.79 1.79 0 01-.58-.15A10.08 10.08 0 01353 279c-1-.65-1.9-1.38-2.83-2-.1-.07-.27-.16-.27-.16a.23.23 0 00.16 0 .34.34 0 00.2-.34v-.05l.1.15.49.72 1 1.44 1 1.44.25.36a2.06 2.06 0 01.26.45.74.74 0 01-.73.92c-2.56.07-5.07.15-7.58.2z" class="cls-7"/></g></g></svg>