<svg xmlns="http://www.w3.org/2000/svg" width="494" height="336" viewBox="0 0 494 336"><defs><style>.cls-1{fill:#fff}.cls-3{fill:#3d64c9}.cls-4{fill:#567ee3}.cls-5{fill:#3659b3}.cls-14{fill:#e05a16}</style></defs><g id="Layer_2"><g id="PRODUCT"><path d="M0 0h494v336H0z" class="cls-1"/><path fill="#e8e8e8" d="M272.87 257.44c-14.43-1.13-150.61-18.49-171.37-11.3-21 7.26 113.12 11.46 49.52 27.47-39.54 9.95 153.62 42 148.11 19.42-6.87-31 35.18-5.19 92.06-16.51 40.03-7.98-118.32-19.08-118.32-19.08z"/><path d="M274.76 284l-99.9-10.69v-4.28l99.9 10.69V284z" class="cls-3"/><path d="M304.39 256.81l-11.75 9.09-17.88 13.83-99.9-10.7 40.57-11.4 23.58-6.62 65.38 5.8z" class="cls-4"/><path d="M303.6 257.44l-10.96 8.46-59.92-13.12 6.29-1.77 64.59 6.43z" class="cls-3"/><path d="M303.6 257.44l-67.32-5.66 2.73-.77 64.59 6.43z" class="cls-5"/><path fill="#5a81e4" d="M306.74 257.84l-14.05 11.5L274.76 284v-4.27l17.93-13.86 10.91-8.43 3.14.4z"/><path d="M306.74 257.84l-14.05 11.5v-3.47l10.91-8.43 3.14.4z" class="cls-5"/><path d="M306.74 257.84v-33.56l-67.74-.9.01 27.63 67.73 6.83z" class="cls-5"/><path d="M303.6 257.44l-.84-34.06H239l.01 27.63 64.59 6.43z" class="cls-3"/><path d="M381.66 256.3l-1.53 1.48-261.9-22.62v-197l258.29 7 1-1c5.25 3 10.79 9.69 10.79 18.31v178.21a21.74 21.74 0 01-6.65 15.62z" class="cls-3"/><path d="M382 53.41v198.64a9.85 9.85 0 01-10.87 9.81l-128.58-13.24-121.77-12.55a9.86 9.86 0 01-8.86-9.82v-178a11.73 11.73 0 0112-11.72l118.61 2.94 128.89 3.2A10.78 10.78 0 01382 53.41z" class="cls-4"/><path d="M382 53.41v198.64a9.85 9.85 0 01-10.87 9.81l-128.58-13.24V39.43l128.89 3.2A10.78 10.78 0 01382 53.41z" class="cls-4"/><path fill="#4470e0" d="M382 52.51v168l-270-23.42V46.3a9.87 9.87 0 0110-9.86l250.32 6.21a9.86 9.86 0 019.68 9.86z"/><path d="M374.63 52.51v160l-255.38-22.16v-144a2.54 2.54 0 012.53-2.55L372.16 50a2.52 2.52 0 012.47 2.51z" class="cls-1"/><path fill="#f66318" d="M245.35 185.86c20.9-10.42 33.41-31.43 33.16-55.23L278 79.49a142.52 142.52 0 00-66.09-.86l-.14 48.49c-.08 22.56 12.59 44.65 33.58 58.74z"/><path fill="#ffb691" d="M276.34 130.72l-.51-51.06A145.15 145.15 0 00235 75.45a139.21 139.21 0 0143 4.11l.53 51.14c.25 23.81-11.55 44.82-32.85 55.21l-.12.08c-.48-.33-1-.67-1.48-1a59.87 59.87 0 0032.26-54.27z"/><path fill="#ff9a66" d="M248.07 192.29a68 68 0 0023.44-20.61 66.53 66.53 0 007.25-13.8 65.82 65.82 0 003.88-15.3 111.66 111.66 0 00.61-16.12v-16.35q0-16.35.56-32.71.89 16.39 1.31 32.78c.18 5.47.26 10.93.4 16.4A111.92 111.92 0 01285 143a64.75 64.75 0 01-11.93 29.74 61.87 61.87 0 01-25 19.55z" opacity=".4"/><path fill="#ff9a66" d="M243.25 192.38a86.33 86.33 0 01-25.31-23.62 71.18 71.18 0 01-12.31-29.91 96.58 96.58 0 01-.69-15.52c.06-5.12.08-10.24.19-15.36q.21-15.36.9-30.73.72 15.39 1 30.79c.12 5.14.14 10.27.22 15.4a99.4 99.4 0 00.8 15.27 66.65 66.65 0 004.08 15 79 79 0 007.39 14.3 95.17 95.17 0 0023.73 24.38z" opacity=".5"/><path fill="#ffa77d" d="M276.4 135.11c-1.86 9.63-5 19.11-11.16 27.25C237.2 137.18 218.7 106.23 210 72a151.93 151.93 0 0174 .58l.62 61.15c.21 13.78-4.19 25.37-10.22 36.54-2.44-2-4.8-4-7.11-6.07 3.84-7.2 8.71-16.65 9.11-29.09z" opacity=".16"/><path d="M243.66 164.91a42.2 42.2 0 0011.45-10.07 43.42 43.42 0 004.13-6.29 45.62 45.62 0 002.95-6.94 46.84 46.84 0 002.34-15l-.17-15.61-.06-15.62v-4.6c-.16-.22 1.41 1.77.73.93h-.18l-1-.27c-.65-.17-1.3-.37-2-.51-2.63-.66-5.3-1.17-8-1.61a96.43 96.43 0 00-32.42.57 85.35 85.35 0 0132.63-2.19c2.74.36 5.48.8 8.18 1.43.68.14 1.35.33 2 .49l1 .25h.22c-.67-.84.94 1.15.77 1v.73l.07 3.91.19 15.66c0 5.22.08 10.42.05 15.66a46.3 46.3 0 01-2.79 15.44 40.8 40.8 0 01-20.09 22.64z" class="cls-14"/><path d="M243.59 144.21a21 21 0 008.15-11 22.1 22.1 0 001-6.77l-.1-7.18v-9.32c-.16-.21 1.42 1.79.74.94h-.06l-.45-.13c-.3-.09-.6-.19-.9-.26-1.21-.33-2.43-.6-3.66-.85a49.35 49.35 0 00-15.06-.4 36.71 36.71 0 0115.27-1.2 34.07 34.07 0 013.87.68c.32.06.64.15 1 .23l.48.12h.06c-.67-.84.93 1.15.76.95v.34l.05 1.8.1 7.2v7.21a21.06 21.06 0 01-1.44 7.23 18.83 18.83 0 01-9.81 10.41z" class="cls-14"/></g></g></svg>