<svg xmlns="http://www.w3.org/2000/svg" width="494" height="336"><defs><clipPath id="clip-path"><path fill="none" d="M316.71 33.9S335 31 348.61 63.44s28.25 71.34 28.25 71.34 16.64 42-20.68 64.55c0 0-20.13 18.17-35.79 17.16S295.67 177.2 281 177.2c-26.73 0-31.66-55-10.09-87.82s24.21-40.85 24.21-40.85 8.1-14.7 21.59-14.63z"/></clipPath><style>.cls-2{fill:#fff}.cls-5{fill:#2f4e9c}.cls-6{fill:#294887}.cls-13{fill:#d9e2f8}.cls-18{fill:#3659b3}</style></defs><g id="Layer_2"><g id="PRODUCT"><path d="M0 0h494v336H0z" class="cls-2"/><path fill="#e8e8e8" d="M47.9 256.46c-37.57 4.68 48.94 37.54 102.27 44.82 51.55 7 289.25-29.72 299-31.17 31.84-4.77-12.37-12.08-37.57-18.88-47.24-12.72 46.63-7.56 31.46-12-19.17-5.55-112.8-1.7-125.74-2.85-73.51-6.51-197.83 11.17-269.42 20.08z"/><path fill="#83d4b9" d="M316.71 33.9S335 31 348.61 63.44s28.25 71.34 28.25 71.34 16.64 42-20.68 64.55c0 0-20.13 18.17-35.79 17.16S295.67 177.2 281 177.2c-26.73 0-31.66-55-10.09-87.82s24.21-40.85 24.21-40.85 8.1-14.7 21.59-14.63z"/><path d="M297.13 239.1c0-6.09 8.61-11 19.22-11s19.22 4.93 19.22 11-38.44 6.09-38.44 0z" class="cls-5"/><path d="M316.93 228.09c6.55.73 13.72 1.3 16.21 8.76 1.58 6-24.44 4.14-35.91 1.12a7.08 7.08 0 0 0-.1 1.13c0 6.09 38.44 6.09 38.44 0s-8.3-10.83-18.64-11.01z" class="cls-6"/><ellipse cx="315.68" cy="230.52" class="cls-6" rx="3.32" ry=".77"/><path fill="#007477" d="m327.65 155.22-.61-10-.33-5-.59-5-1.21-9.92c-1-6.6-2.29-13.13-3.45-19.68-1.58-6.47-3.09-13-4.75-19.39 1.12 6.57 2.41 13.08 3.59 19.61l1.4 9.85.72 4.92c.23 1.64.51 3.28.63 4.93l1 9.89.5 4.94.25 5 .53 9.91c.06 3.31 0 6.62 0 9.93a236.33 236.33 0 0 1-3.26 39.48c-.67 3.24-1.24 6.5-2 9.72s-1.52 6.44-2.55 9.58c-.64 2.22-1.61 5.1-2.38 7.28a7.75 7.75 0 0 0 .83 0c.87-2.12 1.9-4.77 2.66-6.92 1.19-3.13 2-6.37 3-9.57.51-1.6.79-3.24 1.19-4.86l1.12-4.89a207.14 207.14 0 0 0 3.82-39.82c-.05-3.32-.03-6.66-.11-9.99z"/><g clip-path="url(#clip-path)"><path fill="#007477" d="M373.52 140.16S356.21 102.44 340.35 71s-33.89-27.24-33.89-27.24C293 44.62 286 59.84 286 59.84a13 13 0 0 0-.51 6.55 10.9 10.9 0 0 0 4.19 7.26c8.84 6.56 19.67-9.76 30.81-4.56 21.17 11.68 5.14 39.14 17.2 57.45 4 5.71 11.39 8.78 17.68 13.13 18.76 14.79 19.08 37.38 11.61 57.9 22.16-24.85 6.54-57.41 6.54-57.41z" opacity=".25"/></g><path fill="#b2edd5" d="M376.86 134.77s-14.63-38.83-28.25-71.33-31.9-29.54-31.9-29.54c-13.49-.07-21.56 14.63-21.56 14.63a13 13 0 0 0-1 6.5 10.84 10.84 0 0 0 3.67 7.53c8.36 7.16 20.3-8.36 31.05-2.39 20.3 13.14 2.39 39.41 13.13 58.51 3.59 6 10.75 9.56 16.72 14.33 17.68 16.07 16.42 38.63 7.53 58.58 23.91-23.24 10.61-56.82 10.61-56.82z"/><path d="M294.41 273.42 61.52 257.1 47.93 78a9 9 0 0 1 8.76-9.74h4.5z" class="cls-5"/><path fill="#567ee3" d="M298.16 238 67.05 254.41 52.32 77.68a8.7 8.7 0 0 1 8.87-9.41l212 5.17a8.68 8.68 0 0 1 8.42 7.77z"/><path d="M288.54 226.91 76.31 241.17 62.54 80.92l210.35 3.22 15.65 142.77z" class="cls-2"/><path fill="#d9e2f8" d="M276.5 228.09 88.17 240.66l-2.29-27.33a4.35 4.35 0 0 1 4.21-4.72l179-7.17a4.36 4.36 0 0 1 4.46 3.87z" opacity=".25"/><path d="m65.6 92.86 206.29 3.23.76 7-206.4-2.62-.65-7.58m-1.09-1 .82 9.57 208.44 2.65-1-9-208.26-3.26z" class="cls-13"/><path fill="#d9e2f8" d="m273.94 93.76-210.6-3.47-.8-9.37 210.35 3.22 1.05 9.62z" opacity=".5"/><path d="m64.51 90.31-.65-4.23a3.9 3.9 0 0 1 3.93-4.22l39.54.48a3.89 3.89 0 0 1 3.83 3.47l.56 5.28m45.12.74-.65-4.23a3.91 3.91 0 0 1 3.93-4.23l39.54.48a3.9 3.9 0 0 1 3.83 3.48l.56 5.28" class="cls-13"/><path d="m110.58 91.09-.48-4.43a3.9 3.9 0 0 1 3.9-4.23l39.47.73a3.9 3.9 0 0 1 3.83 3.47l.38 5.22" class="cls-2"/><path fill="#d9e2f8" d="m235.62 168.41-123.19 2.43a4.49 4.49 0 0 1-4.53-4.1l-.63-7.3a4.49 4.49 0 0 1 4.45-4.87l123.09-1.78a4.51 4.51 0 0 1 4.5 4l.72 6.63a4.48 4.48 0 0 1-4.41 4.99z" opacity=".3"/><path fill="#f66219" d="m235.62 168.41-33.91.67-.92-15.8 34-.49a4.51 4.51 0 0 1 4.5 4l.72 6.63a4.48 4.48 0 0 1-4.39 4.99z"/><path d="M411.55 257.1v5.88l-250.83 28.9-99.2-34.78h350.03z" class="cls-5"/><path fill="#3d64c9" d="m298.16 237.99 113.39 19.11-250.83 28.23-93.67-30.92 231.11-16.42z"/><path d="m289.77 242.94 56.07 6.82v1.15l-216.65 19.07-39.1-12.65v-1.95l199.68-12.44z" class="cls-5"/><path d="m297.25 240.66 48.59 9.1-216.76 18.49-38.99-12.87 207.16-14.72z" class="cls-18"/><path d="M327.12 264.52v.82l-98.11 10.36-27.82-9.43v-.82l125.93-.93z" class="cls-5"/><path d="m293.48 257.67 33.64 6.85-98.11 10.36-27.82-9.43 92.29-7.78z" class="cls-18"/></g></g></svg>