<svg xmlns="http://www.w3.org/2000/svg" width="494" height="336"><defs><clipPath id="clip-path"><path fill="none" d="M190.46 159.19c0 30.74-17.73 38.07-39.49 38.07s-39-19.37-43.9-40.57c-3.29-14.16.43-33.32 5.4-49.9 7.25-24.14-5.07-58.19 12.56-53 39.3 11.82 65.43 83.63 65.43 105.4Z"/></clipPath><style>.cls-2,.cls-7{fill:#fff}.cls-3{fill:#e8e8e8}.cls-5{fill:#d9e2f8}.cls-7{fill-rule:evenodd}.cls-9{fill:#294887}.cls-10{fill:#83d4b9}.cls-11,.cls-12{fill:#007477}.cls-11{opacity:.25}.cls-15{fill:#3d64c9}.cls-16{fill:#567ee3}</style></defs><g id="Layer_2"><g id="PRODUCT"><path class="cls-2" d="M0 0h494v336H0z"/><path d="M286.07 295.51c-72.75 15.67 189.69 9 151.35-8.19-24.61-11 37.45-21 7.28-22.78-3-.18-137.85-3-180.13.76-27 2.43-102.27 10.3-135.88 16.12 10.2-1.64 33.45 2.21 17.64 6.77-54.5 15.74 196.84-4.97 139.74 7.32Z" class="cls-3"/><path d="M119 268.33c-18.55-3.3-56.48-4.41-74.81-.71-19.15 2.94 50.48 5.08 57.71 5 19.4-.2 40.58 2.32 37.11 3.56-1.57.56-5.53.53-18.18-.29-39.93-2.58-68 3-36.3 5.08 23.54 1.54 79.41-1 58.75 8.17-8.69 3.84 58.07-8.39 61-9.38-.95-2.92-77.37-10.02-85.28-11.43Z" class="cls-3"/><path fill="#0042c9" d="M368.17 271.63h-27.83a4.2 4.2 0 0 1-4.14-4.26l-.79-28.76a4.2 4.2 0 0 1 4.14-4.27h28.67a4.2 4.2 0 0 1 4.13 4.27v28.76a4.23 4.23 0 0 1-4.18 4.26Z"/><rect width="36.72" height="36.72" x="334.71" y="234.92" class="cls-5" rx="4.47"/><rect width="36.72" height="36.72" x="334.71" y="234.92" fill="#0053ff" rx="4.47"/><g id="Mockup-"><g id="CreateFromHome-_-DesktopPromo-03"><g id="offers"><g id="Logo-Maker-Copy-4"><g id="Logo-Builder"><g id="logo-builder-2"><path d="M343.1 238.38a5 5 0 0 0-5 4.85v20.13a5 5 0 0 0 5 5h5v-25a5 5 0 0 0-5-4.98Z" class="cls-7"/><circle cx="359.96" cy="260.24" r="8.12" class="cls-2"/><circle cx="357.46" cy="244" r="5.62" class="cls-2"/></g></g></g></g></g></g><path fill="#2f4e9c" d="M146.33 281.34c0-6.22 8.79-11.27 19.64-11.27s19.63 5.05 19.63 11.27-39.27 6.22-39.27 0Z"/><path d="M166.56 270.09c6.69.74 14 1.33 16.56 9 1.61 6.14-25 4.23-36.69 1.14a7.46 7.46 0 0 0-.1 1.16c0 6.22 39.27 6.22 39.27 0s-8.47-11.12-19.04-11.3Z" class="cls-9"/><ellipse cx="165.49" cy="272.66" class="cls-9" rx="3.39" ry=".79"/><path d="M148.12 188.06c-.3-7.73-4-15-8.92-21s-11.2-10.62-17.51-15.13c-10.58-7.58-21.55-14.77-33.53-19.86s-25.1-8-38.06-6.75a5.18 5.18 0 0 0-2.7.81c-1.45 1.11-1.37 3.44-.37 5a13.27 13.27 0 0 0 4.21 3.46 45.33 45.33 0 0 1 16.46 18.59c3.63 7.62 5 16.07 7.16 24.24s5.14 16.47 11.27 22.32A39.71 39.71 0 0 0 97 206.83c17.72 8.28 52.2 8.63 51.12-18.77Z" class="cls-10"/><path d="M119.23 191.45c-24.1-12-20.61-39.16-33-60.17l1.93.79c12 5.09 23 12.28 33.53 19.86 6.29 4.51 12.54 9.22 17.51 15.16s8.62 13.24 8.92 21a25.63 25.63 0 0 1-.76 7.61c-9.48.56-18.92-.22-28.13-4.25Z" class="cls-11"/><path d="M165.49 273.45a195.58 195.58 0 0 0-4.7-19.21 213 213 0 0 0-7.73-21 203.42 203.42 0 0 0-9.95-20.07 221.84 221.84 0 0 0-11.92-19 203.46 203.46 0 0 0-13.9-17.57c-1.22-1.39-2.52-2.76-3.67-4.18s-2.47-2.86-3.79-4.2-2.71-2.63-4.15-3.85c-.71-.62-1.46-1.19-2.17-1.77l-2.12-1.79c-5.7-4.76-11.39-9.53-17.39-14.05a164.06 164.06 0 0 0-18.67-12.27 187.3 187.3 0 0 1 18 13.12c5.79 4.66 11.37 9.56 16.92 14.51l2.1 1.86 2.11 1.8q2.08 1.8 4 3.78c1.27 1.31 2.48 2.69 3.64 4.11s2.44 2.83 3.65 4.24a212.83 212.83 0 0 1 13.66 17.52 234.17 234.17 0 0 1 22.12 38.47 222.55 222.55 0 0 1 13.78 39.54Z" class="cls-12"/><path d="M190.46 159.19c0 30.74-17.73 38.07-39.49 38.07s-39-19.37-43.9-40.57c-3.29-14.16.43-33.32 5.4-49.9 7.25-24.14-5.07-58.19 12.56-53 39.3 11.82 65.43 83.63 65.43 105.4Z" class="cls-10"/><g clip-path="url(#clip-path)"><path d="M176.88 191.18c-17.56-8-.13-34.79-4.16-48.88-2.22-7.73-8.5-12.82-14.5-17.65-2.78-2.23-5.93-4.45-8-7.4-3-4.26-2.32-9.73-2.06-14.64.95-18.26-7.68-35.46-25-43a50.09 50.09 0 0 0-10-3.1c1.36-.61 6.61-9.76 8.94-9.2 39.8 10 65.8 89.55 66.82 111.29.81 16.71-3.99 26.74-12.04 32.58Z" class="cls-11"/></g><path d="m165.84 240.7.36 11.75.07 11.76-.24 9.21.14-.05c.24-3 .47-6.09.67-9.14l.42-11.79-.06-11.79-.44-11.79a400.94 400.94 0 0 0-5.54-46.86 439.83 439.83 0 0 0-11-45.88l-3.54-11.24-3.83-11.16-4.18-11c-1.46-3.64-3-7.27-4.49-10.89l4 11.09 3.72 11.16 3.52 11.22 3.25 11.3c4.17 15.11 7.78 30.37 10.46 45.8a439.41 439.41 0 0 1 6 46.58Z" class="cls-12"/><path fill="#b2edd5" d="M176.88 191.18c-17.17-8.82 1.5-34.76-1.87-49-1.84-7.81-7.88-13.19-13.65-18.3-2.67-2.36-5.71-4.72-7.63-7.77-2.76-4.39-1.86-9.83-1.37-14.72 1.81-18.19-6-35.78-23-44.15a49.54 49.54 0 0 0-9.81-3.56 8.46 8.46 0 0 1 5.46.13c39.3 11.83 65.43 83.64 65.43 105.41.02 16.71-5.25 26.5-13.56 31.96Z"/><path d="m200 291.32 73.41-11.67a26 26 0 0 0 22.29-26.93l-7.82-193.67c-.57-13.87-12.35-26.05-26.19-27.15l-75.29-5.79a24.46 24.46 0 0 0-26.32 25.39l8.72 215.07c.65 16.03 15.4 27.27 31.2 24.75Z" class="cls-15"/><path d="m196.72 292 87.92-14a19.48 19.48 0 0 0 16.41-20l-8.38-206.67a19.49 19.49 0 0 0-18-18.64l-88.76-6.82a19.49 19.49 0 0 0-21 20.22l9.23 227.46A19.49 19.49 0 0 0 196.72 292Z" class="cls-16"/><path d="m202.17 285.77 80.65-13.23c9-1.47 15.41-9.68 15-19.12l-8-197.48c-.38-9.43-7.48-17.1-16.52-17.84l-81.46-6.65c-10.68-.88-19.66 8.15-19.21 19.29l8.82 217.36c.47 11.14 10.15 19.41 20.72 17.67Z" class="cls-2"/><path fill="#002fa3" d="m246.53 94.66-21.82-.38a5.64 5.64 0 0 1-5.38-5.4l-1.25-27.25c-.08-3.34 2.56-5.63 5.92-5.36l22.79 1.23a4.94 4.94 0 0 1 4.73 5.09l1 26.22a5.63 5.63 0 0 1-5.99 5.85Z"/><path fill="#108c62" d="M281.45 95.31 263.88 95a5.55 5.55 0 0 1-5.29-5.35l-.92-25.43a5.66 5.66 0 0 1 6.24-5.81c5.59.36 12.15.58 17.71.94 2.87.18 5 2.94 5.16 5.81l.94 24.18a5.76 5.76 0 0 1-6.27 5.97Z"/><path fill="#ff0200" d="m207.61 94-23.48-.44a5.71 5.71 0 0 1-5.5-5.4L177.77 60a5.62 5.62 0 0 1 5.79-5.86l22.94 1.23a5.39 5.39 0 0 1 5.36 5.08L213.43 88a5.63 5.63 0 0 1-5.82 6Z"/><path fill="#d9e2f8" d="M246.55 217.72c-4.33 14.47-23 19.31-37.54 17.63-11.54-1-21.61-7-29.5-15.5L178.1 185c7.42-9.81 14.25-20.16 20.9-28.07 10.89-11.66 25.42-10 40.09-13.59 22.68-6.08 22-32.6 27.75-51 4-11.14 10.45-24.56 23.39-26.89l3.21 79.23c-27.75 14.82-40.05 41.63-46.89 73.04Z" opacity=".3"/><path d="m259.55 35.08.27 6.89a5.12 5.12 0 0 1-5.49 5.31l-37.72-2.39a5.13 5.13 0 0 1-4.73-4.9l-.43-10.27Z" class="cls-16"/><path d="M247 39a.84.84 0 0 1-.9.87l-19.66-1.47a.85.85 0 0 1-.78-.79v-.1a.84.84 0 0 1 .9-.89l19.68 1.57a.84.84 0 0 1 .76.81Z" class="cls-15"/><path fill="#ff9000" d="m208.78 133.82-23 .35a5.37 5.37 0 0 1-5.49-5.4l-.76-23.67a5.66 5.66 0 0 1 5.85-5.92l22.69.31a5.27 5.27 0 0 1 5.36 5.08l1.19 23.32a5.76 5.76 0 0 1-5.84 5.93Z"/><g id="CreateFromHome-_-DesktopPromo-03-2"><g id="offers-2"><g id="Logo-Maker-Copy-4-2"><g id="Logo-Builder-3"><path d="m206.15 121.44-21.3.34v4.26a4.09 4.09 0 0 0 4.3 4.07l17-.72h.13a4.24 4.24 0 0 0 4.09-4.08 4.07 4.07 0 0 0-4.22-3.87Zm-14.57-17.24a6.54 6.54 0 0 0-6.86 6.65 7 7 0 0 0 7 6.89 6.72 6.72 0 0 0 6.85-6.65 7.19 7.19 0 0 0-6.99-6.89Z" class="cls-7" id="logo-builder-4"/></g></g></g></g><path d="m164.59 89.33.86 18.91a1 1 0 0 1-.91 1 1 1 0 0 1-1.08-.94l-.86-18.9a1 1 0 0 1 .93-1h.06a1 1 0 0 1 1 .93Zm-.45-10.95.22 6a1 1 0 0 1-.92 1h-.06a1 1 0 0 1-1.06-1l-.22-6a1 1 0 0 1 .94-1h.06a1 1 0 0 1 1.04 1Zm1.38 33.98.7 18.91a1 1 0 0 1-.92 1h-.06a1 1 0 0 1-1.06-1l-.7-18.91a1 1 0 0 1 .94-1h.06a1 1 0 0 1 1.04 1Z" style="fill:#7091e7"/><path d="M199.81 61.43a1.42 1.42 0 0 1 1 .7 1.47 1.47 0 0 1 .12 1.24l-1.64 4.44a1.23 1.23 0 0 1-1.68.72 1.48 1.48 0 0 1-.75-1.83l1-2.74-2.86-.33a4.22 4.22 0 0 0-4.17 2.37l-4.43 8.8 10.64.51a1.4 1.4 0 0 1-.11 2.79l-12.74-.41a1.29 1.29 0 0 1-1.08-.76 1.72 1.72 0 0 1 0-1.47l5.47-11a6.44 6.44 0 0 1 6.5-3.6ZM207 71.68a1.34 1.34 0 0 1 1.08.69 1.3 1.3 0 0 1 0 1.27l-5.48 10.11a7.87 7.87 0 0 1-6.49 4.31l-4.73.14a1.18 1.18 0 0 1-1-.58 1.55 1.55 0 0 1-.12-1.3l1.64-4.87a1.31 1.31 0 0 1 1.68-.88 1.43 1.43 0 0 1 .75 1.81l-1 2.91h2.93a4.91 4.91 0 0 0 4.13-2.75l4.44-8.31-10.64-.56a1.4 1.4 0 0 1-1.24-1.5 1.31 1.31 0 0 1 1.35-1.33Z" class="cls-7"/><path d="M246.87 68.87c-.47.66-1.77.74-4-1l-.32-.24 4.3-5.28-6.13 4.37a2.57 2.57 0 0 0-.59 0 2.62 2.62 0 0 0-2.13 1.03c-.08-.1-.16-.19-.22-.28l.37-2.5c-2.05 1-2.14 1.82-2 2.65-2.11-1.11-4.69-1.07-5.28 2.42l-.1.13a2.94 2.94 0 0 0-3.49 2.27l-.62-6.44 9-3.31 4.44 2.4 1.69-1-6.09-3.38-10.76 4 1.55 15.63 9.24 9.74 9.12-7.92-1.54-.92-4.13 3.45c-.32-3.21-2.09-6.71-2.34-8.58a6.55 6.55 0 0 0 3.63.77c.83.28 2 2.42 2.32 2.65a.69.69 0 0 0 .55.14c.12 0 2-.71 2.06-.74a.83.83 0 0 0 .46-.62 2.77 2.77 0 0 1-.37-2.36A9.42 9.42 0 0 1 241 70c1.12-.2 2.24 1.13 4.19 1.32 2.61.26 3.07-2.94 2.05-4.76a3.53 3.53 0 0 1-.37 2.31Z" class="cls-7" id="Fill-1-Copy-8"/><path d="M282 79.21a.5.5 0 0 0-.35.06c-.64 1.22-1.23 1.72-2.26 1.6a2.24 2.24 0 0 1-1.88-1.39 13 13 0 0 0 1.55-6.43c-.16-4.37-2.4-6.84-6.25-7.3s-5.95 1.52-5.83 5.91a16.14 16.14 0 0 0 2 6.85 1.59 1.59 0 0 1-1.81 1c-1-.11-1.66-.75-2.38-2.13a.69.69 0 0 0-.36-.15c-.45 0-.72.31-.7 1.15a4.36 4.36 0 0 0 4 4.13 4.49 4.49 0 0 0 1.89-.18c-.83 2.46-1.82 2.88-3.18 2.36a.89.89 0 0 0-.43.87c0 .86.83 1.76 2.45 1.94 2.33.25 4.1-1.2 4.69-4.63.08-.08.14-.15.26-.13s.19.09.27.19c.82 3.59 2.7 5.44 5 5.69 1.62.18 2.37-.55 2.34-1.4a1.2 1.2 0 0 0-.49-1c-1.33.23-2.35-.42-3.35-3.07a5.34 5.34 0 0 0 1.92.6 3.09 3.09 0 0 0 3.72-3.25c-.05-.82-.35-1.24-.82-1.29Z" class="cls-2" id="Page-1"/><path fill="#5c8a35" d="m397.1 292.75-31.87-3.25c-2.14-.22-1.89-3.66.1-4.49l26.05-7.1a2.17 2.17 0 0 1 1-.15l33.13.3s1.07 2.74-1.48 3.78l-25.92 10.76a1.94 1.94 0 0 1-1.01.15Z"/><path d="m397.5 290.75-31.8-3.24a1.3 1.3 0 0 1-.37-2.5L392 274a1.23 1.23 0 0 1 .63-.1l31.81 3.24a1.3 1.3 0 0 1 .36 2.5l-26.63 11.06a1.22 1.22 0 0 1-.67.05Z" class="cls-5"/><path fill="#72aa42" d="m397.5 290.75-31.8-3.24a1.3 1.3 0 0 1-.37-2.5L392 274a1.23 1.23 0 0 1 .63-.1l31.81 3.24a1.3 1.3 0 0 1 .36 2.5l-26.63 11.06a1.22 1.22 0 0 1-.67.05Z"/><path fill="#d8ecdd" d="M393.59 280.54c.45-.4-.06-.75-1.17-.91l-4.28-.56a.92.92 0 0 0-.56.08l-2.2 1.86c-.45 1 4.06 1.05 7.24.43Z"/><path d="m415.2 279.21-4-.49a14.22 14.22 0 0 0-4.39.22c-4.11.84-9.37 1.88-14.64 2.93-3.21.63-8.16.46-6.77-.85l-2.6 2.29c-.62.55.09 1.08 1.79 1.33a19.46 19.46 0 0 0 6-.2l24.62-5.08c.16-.05.19-.13-.01-.15Z" class="cls-2"/></g></g></svg>