<svg xmlns="http://www.w3.org/2000/svg" width="494" height="336"><defs><clipPath id="clip-path"><path fill="none" d="m366.37 264.26-80.22 1.81-18.92-112.4a9.33 9.33 0 0 1 9.4-10.87l68.07 1.44z"/></clipPath><style>.cls-19,.cls-8{fill:none}.cls-2{fill:#fff}.cls-6{fill:#3d64c9}.cls-7{fill:#567ee3}.cls-8{stroke:#f66318}.cls-19,.cls-8{stroke-miterlimit:10}.cls-9{fill:#b4c5f2}.cls-10{fill:#86a2eb}.cls-11{fill:#d9e2f8}.cls-12{fill:#525ecc}.cls-15{fill:#44bee0}.cls-19{stroke-linecap:round;stroke-dasharray:5;stroke:#525ecc}</style></defs><g id="Layer_2"><g id="PRODUCT"><path d="M0 0h494v336H0z" class="cls-2"/><path fill="#e8e8e8" d="M24.58 271.3c3.46 4.53 115.25 3.33 57.94 18.86-27 7.31 282.87-10 234.22 1.8-41.43 10 59.21-6.68 89.94-10.78 40.51-5.41-31.19-14.47-1.72-15.11 30-.66 73.24-8.94-1.29-8.18-18.1.19-384.51 6.31-379.09 13.41z"/><path fill="#3659b3" d="M149.87 135.64 132.94 268a4 4 0 0 0 4 4.66l58.36-2.15z"/><path fill="#1b2c59" d="m149.87 135.64-1.35 10.55c7.18 41.33 14.88 89.44-.79 126.07l47.56-1.75z" opacity=".13"/><path d="m373.67 276.61-191.73 3a7.3 7.3 0 0 1-7.19-6l-24.88-138a7.31 7.31 0 0 1 7.19-8.62l193.47 4.82a7.29 7.29 0 0 1 7.23 6.24l23.14 130.19a7.31 7.31 0 0 1-7.23 8.37z" class="cls-6"/><path d="m386 276.61-199.65 3a7.3 7.3 0 0 1-7.19-6l-24.88-138a7.31 7.31 0 0 1 7.19-8.62l201.4 4.82a7.31 7.31 0 0 1 7.23 6.24l23.13 130.16a7.3 7.3 0 0 1-7.23 8.4z" class="cls-7"/><ellipse cx="373.47" cy="200.8" class="cls-6" rx="4.6" ry="6.32"/><ellipse cx="372.82" cy="200.37" class="cls-7" rx="4.6" ry="6.32"/><path d="m371.22 272-179.63 2.8a6.84 6.84 0 0 1-6.73-5.62l-23.31-129.27a6.84 6.84 0 0 1 6.73-8.07l181.27 4.51a6.84 6.84 0 0 1 6.77 5.85l21.68 122a6.85 6.85 0 0 1-6.78 7.8z" class="cls-2"/><path d="m195.74 155.42-21.37-.21a1.7 1.7 0 0 1-1.67-1.41l-1.17-7a1.68 1.68 0 0 1 1.71-2l21.43.83a1.69 1.69 0 0 1 1.61 1.39l1.12 6.33a1.69 1.69 0 0 1-1.66 2.07z" class="cls-8"/><path d="m194.67 145.72-9.19 6.28a1.78 1.78 0 0 1-2 0l-10.22-7.08" class="cls-8"/><path d="M44.14 112.1 34.68 160s47-6.81 71.56 12.68c0 0 5.81-22.27 5.49-33.74 0-.02-31.35-28.17-67.59-26.84z" class="cls-9"/><path d="M44.14 112.1s14.68 17.35 29 37.46l38.55-10.64s-32.95-29.46-67.55-26.82z" class="cls-10"/><path d="M111.73 138.92s-33-29.46-67.59-26.82a291.5 291.5 0 0 1 29.34 34.77z" class="cls-11"/><path d="M61.18 137.71c-2.11 2-4.27 3.89-6.44 5.79s-4.38 3.75-6.57 5.63-4.43 3.7-6.68 5.51-4.49 3.61-6.81 5.36c2.11-2 4.27-3.88 6.44-5.78s4.38-3.76 6.57-5.64 4.43-3.69 6.68-5.5 4.5-3.63 6.81-5.37zm29.27 10.17c1.44 2 2.82 4 4.19 6s2.68 4.1 4 6.15 2.61 4.14 3.88 6.24 2.52 4.2 3.7 6.35c-1.45-2-2.82-4-4.19-6s-2.68-4.1-4-6.15-2.61-4.14-3.88-6.24-2.52-4.23-3.7-6.35z" class="cls-12"/><path d="m154.24 73.44-34.73 27.64s12.56 21.24 63.26 45.85l17-23.93s-21.93-17.2-45.53-49.56z" class="cls-9"/><path d="m119.51 101.08 49.28 3.67 14 42.18s-42.79-18.34-63.28-45.85z" class="cls-10"/><path d="m119.51 101.08 48.55 4.72 14.71 41.13s-42.77-18.34-63.26-45.85z" class="cls-11"/><path d="M199.76 123c-3.83-.13-7.65-.46-11.46-.76s-7.62-.72-11.41-1.27c3.83.13 7.64.46 11.45.77s7.66.71 11.42 1.26zm-45.52-49.56c-.05 2.31-.12 4.61-.23 6.92l-.36 6.92-.48 6.9q-.27 3.46-.61 6.9c0-2.31.12-4.61.22-6.92l.37-6.92.48-6.9c.17-2.34.37-4.6.61-6.9z" class="cls-12"/><path fill="#567ee3" d="m181 105.43-32.37 2.66a99.69 99.69 0 0 1-10.73-21.63l16.35-13A309.8 309.8 0 0 0 181 105.43z" opacity=".22"/><path d="M138.06 23.54S124.81 64 151.14 104.16l37.18-3.08s-9.47-33.37 6.68-76.19z" class="cls-9"/><path d="M175.88 65.39c-3.39-7.86-37.82-41.85-37.82-41.85s-12.37 44.63 13.08 80.62c.33-6.01 24.74-38.77 24.74-38.77z" class="cls-10"/><path d="M174.83 65.39c-3.39-7.86-36.77-41.85-36.77-41.85s-12.37 44.63 13.08 80.62c.33-6.01 23.69-38.77 23.69-38.77z" class="cls-11"/><path d="M188.32 101.08c-1.75-1.73-3.49-3.49-5.2-5.26L178 90.47 173 85q-2.51-2.73-4.93-5.52 2.64 2.59 5.21 5.26l5.1 5.35 5 5.44q2.51 2.76 4.94 5.55zM195 24.89q-2.94 3-5.94 6l-6 5.94-6.06 5.9q-3.06 2.91-6.2 5.76 2.94-3.06 5.94-6l6-5.94 6.11-5.86q3.05-2.95 6.15-5.8z" class="cls-12"/><path fill="#3dabc9" d="M273.33 55.34s7.18 7.84 7.08 11.14a100.69 100.69 0 0 0-25 34.42s1.4-40.84 17.92-45.56z"/><path d="M273.33 55.34s-11.8.68-17.87 9.11v33.37s5.06-23.93 17.87-42.48z" class="cls-15"/><path d="M255.46 100.9s8.77-27.69 31-49.94c0 0 12.14-1 18.88 1.69.02 0-41.11 31.43-49.88 48.25z" class="cls-15"/><path fill="#ace6ce" d="M371.36 70.91s7.42 21.24 11.47 22.59c0 0 28-18.55 46.19-21.24 0 0-4.72-22.59-11.13-28.32 0 0-22.59 1.68-46.53 26.97z"/><path fill="#007477" d="M371.36 70.91s26.6 5.9 31 3.54 15.55-30.51 15.55-30.51-21.1.41-46.55 26.97z" opacity=".25"/><path fill="#b2edd5" d="M371.36 70.91s26 4.72 30.35 2.36 16.18-29.33 16.18-29.33-21.08.41-46.53 26.97z"/><path d="M382.83 93.5c.5-1.45 1.08-2.85 1.67-4.26s1.23-2.78 1.86-4.16 1.31-2.75 2-4.1 1.41-2.69 2.2-4c-.5 1.44-1.09 2.85-1.68 4.25S387.68 84 387 85.4s-1.31 2.74-2 4.09-1.39 2.7-2.17 4.01zM429 72.26c-1.55-.51-3.06-1.09-4.58-1.68s-3-1.22-4.5-1.86-3-1.31-4.43-2-2.93-1.42-4.35-2.21c1.55.51 3.07 1.09 4.58 1.68s3 1.22 4.5 1.86 3 1.31 4.43 2 2.94 1.42 4.35 2.21z" class="cls-2"/><path d="M282.65 45.23s24.89-36.18 61.17-34.53M34.56 24.17s51.11-.61 87.44 48.64" class="cls-19"/><path d="M359.47 264.41 291.25 266a5.9 5.9 0 0 1-5.95-5l-18.75-111.41a5.9 5.9 0 0 1 5.94-6.88l67.39 1.43a5.91 5.91 0 0 1 5.68 4.85l19.59 108.48a5.9 5.9 0 0 1-5.68 6.94z" class="cls-11"/><path fill="#a1b7ef" d="m275.76 204.31-9.21-54.68a5.92 5.92 0 0 1 6-6.9l67.35 1.51z" opacity=".35"/><path fill="none" stroke="#b4c5f2" stroke-linecap="round" stroke-miterlimit="10" stroke-width=".5" d="M174.58 162.31h80.31m-79.08 8.61 80.19-.02m-78.24 10.83 80.05-.01m-74.67 29.85h24.2m-22.69 8.36 24.34.01m-22.36 15.48h23.31m-24.5-7.23 28.33-.01m-21.87 36.6 61.8-.99m-73.43-63.61 61.8-.99m-62.78-7.97 70.38-1.13m-59.41 65.44 37.9-.6m-39.43-7.89 37.69-.61"/><g clip-path="url(#clip-path)"><path d="M320 156.4s-26.94 16.95-54.6 18.72v27.09s35.84 9.87 72.31-8.36c-.04 0-2.56-26.57-17.71-37.45z" class="cls-9"/><path d="m265.36 175.12 31.88 18.75L320 156.4s-26.63 19.8-54.64 18.72z" class="cls-10"/><path d="m265.36 175.12 31.57 17 23-35.68s-26.75 16.73-54.57 18.68z" class="cls-11"/><path d="M337.67 193.85c-2.52-.71-5-1.46-7.54-2.23l-7.49-2.36-7.45-2.47c-2.49-.84-5-1.7-7.42-2.6 2.52.72 5 1.46 7.53 2.24l7.49 2.36 7.46 2.47c2.48.83 4.95 1.74 7.42 2.59zm-72.31 8.35c3.35-2.21 6.8-4.27 10.24-6.33s6.94-4.05 10.5-5.91c-3.35 2.22-6.8 4.27-10.24 6.34s-6.94 4.04-10.5 5.9z" class="cls-12"/></g><path d="m330.65 207.12-31 24.25s36.75 25.54 48.48 55c0 0 32.85-14.08 38.58-28.94-.01 0-15.92-34.93-56.06-50.31z" class="cls-9"/><path d="m330.65 207.12 7.9 40.75s29.65 11.13 48.15 9.56c0 0-12.64-33.14-56.05-50.31z" class="cls-10"/><path fill="#e7ecf8" d="m330.65 207.12 9.13 40S368.2 259 386.7 257.43c0 0-12.64-33.14-56.05-50.31z"/><path d="M348.12 286.37c.64-2.2 1.23-4.42 1.81-6.63s1.13-4.43 1.61-6.66.92-4.48 1.24-6.74a27.81 27.81 0 0 0 .3-6.82 23.26 23.26 0 0 1 .08 6.87 62.06 62.06 0 0 1-1.14 6.79c-.51 2.24-1.07 4.47-1.72 6.66s-1.37 4.38-2.18 6.53zm-48.48-55c2.61-.24 5.23-.34 7.85-.35s5.24.11 7.86.32a68.23 68.23 0 0 1 7.79 1.1 37.75 37.75 0 0 1 7.51 2.32 48.72 48.72 0 0 0-7.58-1.94c-2.57-.47-5.16-.77-7.76-1s-5.21-.34-7.83-.42-5.22-.09-7.84-.03z" class="cls-12"/><path d="m163.82 160-23 30.74s43.18 25.81 81 22l5.38-31.95s-37.12-3.36-63.38-20.79z" class="cls-9"/><path d="m163.82 160 18.27 34.4 45.08-13.6s-32.02-1.25-63.35-20.8z" class="cls-10"/><path d="m163.82 160 19 32.54 44.38-11.74s-32.05-1.25-63.38-20.8z" class="cls-11"/><path d="m140.8 190.71 8.4-.24c2.81-.11 5.61-.21 8.4-.39s5.59-.37 8.37-.67l2.09-.25 2.07-.33c.69-.11 1.37-.28 2.06-.41s1.34-.39 2-.58a34.12 34.12 0 0 1-8.18 1.95c-2.79.38-5.59.61-8.39.79s-5.61.25-8.42.27-5.6-.02-8.4-.14zm80.99 22.01a52.52 52.52 0 0 1-7.18-3.13 62.1 62.1 0 0 1-6.71-4.07 49.06 49.06 0 0 1-6-5 36 36 0 0 1-4.91-6.11c.82 1 1.56 2.1 2.47 3 .44.47.85 1 1.31 1.44l1.4 1.36a53.62 53.62 0 0 0 6 4.91 71.64 71.64 0 0 0 6.6 4.15c1.13.63 2.28 1.24 3.45 1.81s2.36 1.14 3.57 1.64z" class="cls-12"/><path d="M339.55 197.56s127.51-54.41 130.81-116C470.53 47.65 429 53.3 429 53.3" class="cls-19"/></g></g></svg>